<svg xmlns="http://www.w3.org/2000/svg" xmlns:xlink="http://www.w3.org/1999/xlink"><symbol id="sprite-about-star" fill="none" viewBox="0 0 18 22"><path fill="#fff" d="m9 0 3.01 5.48 5.99.02-2.97 5.5 2.97 5.5-5.99.03-3.01 5.47-3.01-5.47-5.99-.03 2.97-5.5-2.97-5.5 5.99-.02z"/></symbol><use xlink:href="#sprite-about-star" width="18" height="22"/><view id="sprite-about-star-view" viewBox="0 0 18 22"/><symbol id="sprite-accordion-plus" fill="none" viewBox="0 0 18 18"><g clip-path="url(#a)"><path stroke="#fff" d="M9 0v9m0 0v9m0-9h-9m9 0h9"/></g><defs><clipPath id="a"><path fill="#fff" d="M0 0h18v18h-18z"/></clipPath></defs></symbol><use xlink:href="#sprite-accordion-plus" width="18" height="18" y="22"/><view id="sprite-accordion-plus-view" viewBox="0 22 18 18"/><symbol id="sprite-angle-rotation" fill="none" viewBox="0 0 18 18"><path fill="#fff" d="M18 18a18 18 0 0 1-18-18v18z"/></symbol><use xlink:href="#sprite-angle-rotation" width="18" height="18" y="40"/><view id="sprite-angle-rotation-view" viewBox="0 40 18 18"/><symbol id="sprite-angle" fill="none" viewBox="0 0 10 10"><path fill="#fff" d="M10 0a10 10 0 0 0-10 10v-10z"/></symbol><use xlink:href="#sprite-angle" width="10" height="10" y="58"/><view id="sprite-angle-view" viewBox="0 58 10 10"/><symbol id="sprite-arrow-nav-dark" fill="none" viewBox="0 0 16 16"><path stroke="#484848" d="m15.27 5.09-7.27 6.55-7.27-6.55"/></symbol><use xlink:href="#sprite-arrow-nav-dark" width="16" height="16" y="68"/><view id="sprite-arrow-nav-dark-view" viewBox="0 68 16 16"/><symbol id="sprite-arrow-nav" fill="none" viewBox="0 0 12 12"><path stroke="#fff" d="m11.46 3.82-5.46 4.9-5.45-4.9"/></symbol><use xlink:href="#sprite-arrow-nav" width="12" height="12" y="84"/><view id="sprite-arrow-nav-view" viewBox="0 84 12 12"/><symbol id="sprite-button-arrow" viewBox="0 0 10 10"><g clip-path="url(#a)"><path d="m1 9 8-8m0 0h-7.95m7.95 0v7.95"/></g><defs><clipPath id="a"><path d="M0 0h10v10h-10z"/></clipPath></defs></symbol><use xlink:href="#sprite-button-arrow" width="10" height="10" y="96"/><view id="sprite-button-arrow-view" viewBox="0 96 10 10"/><symbol id="sprite-check-tick-black" fill="none" viewBox="0 0 10 10"><path stroke="#484848" stroke-linecap="round" stroke-linejoin="round" d="m1 4.5 2.95 3.5 5.05-6"/></symbol><use xlink:href="#sprite-check-tick-black" width="10" height="10" y="106"/><view id="sprite-check-tick-black-view" viewBox="0 106 10 10"/><symbol id="sprite-check-tick-white" fill="none" viewBox="0 0 10 10"><path stroke="#fff" stroke-linecap="round" stroke-linejoin="round" d="m1 4.5 2.95 3.5 5.05-6"/></symbol><use xlink:href="#sprite-check-tick-white" width="10" height="10" y="116"/><view id="sprite-check-tick-white-view" viewBox="0 116 10 10"/><symbol id="sprite-check-tick" fill="none" viewBox="0 0 10 10"><path stroke="#316DC2" stroke-linecap="round" stroke-linejoin="round" d="m1 4.5 2.95 3.5 5.05-6"/></symbol><use xlink:href="#sprite-check-tick" width="10" height="10" y="126"/><view id="sprite-check-tick-view" viewBox="0 126 10 10"/><symbol id="sprite-modal-closed" fill="none" viewBox="0 0 16 16"><path d="m2 14 6-6m0 0 6-6m-6 6 6 6m-6-6-6-6"/></symbol><use xlink:href="#sprite-modal-closed" width="16" height="16" y="136"/><view id="sprite-modal-closed-view" viewBox="0 136 16 16"/><symbol id="sprite-nav-closed" viewBox="0 0 20 20"><path stroke="#000" stroke-linecap="round" d="M1 6h18m-18 4h18m-18 4h18"/></symbol><use xlink:href="#sprite-nav-closed" width="20" height="20" y="152"/><view id="sprite-nav-closed-view" viewBox="0 152 20 20"/><symbol id="sprite-nav-opened" viewBox="0 0 20 20"><path stroke="#000" stroke-linecap="round" stroke-linejoin="round" d="m2 18 8-8m0 0 8-8m-8 8 8 8m-8-8-8-8"/></symbol><use xlink:href="#sprite-nav-opened" width="20" height="20" y="172"/><view id="sprite-nav-opened-view" viewBox="0 172 20 20"/><symbol id="sprite-ok" viewBox="0 0 26 26"><g clip-path="url(#a)"><path d="M13 8.97c.7 0 1.26.55 1.26 1.24 0 .67-.56 1.23-1.26 1.23s-1.26-.56-1.26-1.23c0-.69.56-1.24 1.26-1.24m0 4.22a3 3 0 0 0 3.04-2.98 3 3 0 0 0-3.04-2.99 3 3 0 0 0-3.04 2.99 3 3 0 0 0 3.04 2.98m1.23 2.43a6 6 0 0 0 1.77-.72.86.86 0 0 0 .28-1.2.9.9 0 0 0-1.23-.28 3.9 3.9 0 0 1-4.1 0 .9.9 0 0 0-1.23.28.86.86 0 0 0 .28 1.2q.83.51 1.77.72l-1.7 1.67a.86.86 0 0 0 0 1.23.9.9 0 0 0 1.26 0l1.67-1.64 1.67 1.64a.9.9 0 0 0 1.26 0 .86.86 0 0 0 0-1.23z"/></g><defs><clipPath id="a"><path d="M0 0h26v26h-26z"/></clipPath></defs></symbol><use xlink:href="#sprite-ok" width="26" height="26" y="192"/><view id="sprite-ok-view" viewBox="0 192 26 26"/><symbol id="sprite-reddit" viewBox="0 0 26 26"><g clip-path="url(#a)"><path d="M14.02 7.49c-.33 0-.65.18-.85.43q-.29.4-.4.91a8 8 0 0 0-.18 1.66 5.4 5.4 0 0 0-2.51.82q-.46-.4-.97-.4c-.38 0-.75.18-1.01.53a2 2 0 0 0 .14 2.44q-.06.3-.07.62c0 2.22 2.16 4.02 4.83 4.02s4.83-1.8 4.83-4.02q0-.32-.07-.62a2 2 0 0 0 .14-2.44 1.3 1.3 0 0 0-1-.53q-.53 0-.97.4a5.4 5.4 0 0 0-2.5-.82c0-.5.04-1 .13-1.39q.1-.37.2-.51c.1-.14.14-.14.26-.14.27 0 .31.1.47.32q.12.17.34.4c.22.22.38.25.62.25v-.97c-.07 0-.08 0-.12-.04q-.08-.08-.2-.28c-.2-.26-.56-.65-1.1-.65m2.65.1c-.64 0-1.15.6-1.15 1.35s.51 1.36 1.15 1.36 1.15-.6 1.15-1.36c0-.75-.52-1.36-1.15-1.36m0 .49c.4 0 .74.4.74.87 0 .49-.33.88-.74.88s-.74-.4-.74-.88.33-.87.74-.87m-3.68 3.19c2.26 0 4.18 1.49 4.18 3.25s-1.92 3.24-4.18 3.24-4.18-1.48-4.18-3.25c0-1.75 1.92-3.24 4.18-3.24m-3.88.43a1 1 0 0 1 .34.1q-.6.54-.96 1.27c-.15-.38-.1-.85.08-1.1a.7.7 0 0 1 .54-.27m7.76 0q.32 0 .54.28c.19.24.23.71.08 1.08a4 4 0 0 0-.96-1.26 1 1 0 0 1 .34-.1m-5.51 1.22c-.41 0-.74.39-.74.87s.33.88.73.88c.42 0 .75-.4.75-.88s-.34-.88-.74-.88m3.27 0c-.41 0-.75.4-.75.88s.34.88.74.88c.41 0 .75-.4.75-.88s-.34-.88-.74-.88m-3.67 2.98a2.2 2.2 0 0 0 2.03 1.25c.97 0 1.78-.61 2.04-1.25-.47.36-1.21.6-2.04.6s-1.56-.24-2.03-.6"/></g><defs><clipPath id="a"><path d="M0 0h26v26h-26z"/></clipPath></defs></symbol><use xlink:href="#sprite-reddit" width="26" height="26" y="218"/><view id="sprite-reddit-view" viewBox="0 218 26 26"/><symbol id="sprite-slider-arrow" viewBox="0 0 12 12"><path d="M0 5.69h10m0 0-4.97 5.31m4.97-5.31-4.97-4.69"/></symbol><use xlink:href="#sprite-slider-arrow" width="12" height="12" y="244"/><view id="sprite-slider-arrow-view" viewBox="0 244 12 12"/><symbol id="sprite-vk" viewBox="0 0 26 26"><g clip-path="url(#a)"><path d="M18.68 15.47c-.03-.05-.23-.45-1.15-1.27-.97-.86-.84-.72.32-2.2q1.05-1.35.91-1.7c-.08-.22-.6-.16-.6-.16h-1.74s-.13 0-.23.05c-.09.05-.15.17-.15.17s-.28.7-.64 1.3c-.78 1.26-1.09 1.32-1.21 1.24-.3-.18-.22-.73-.22-1.12 0-1.21.19-1.72-.38-1.85a3 3 0 0 0-.81-.08c-.62 0-1.14 0-1.44.14-.2.1-.35.3-.26.31.12.02.38.07.51.25.18.23.18.75.18.75s.1 1.43-.24 1.61c-.24.12-.56-.13-1.25-1.27-.35-.58-.62-1.23-.62-1.23s-.05-.12-.14-.18a1 1 0 0 0-.27-.1h-1.65s-.25.01-.34.12c-.08.09 0 .28 0 .28s1.29 2.89 2.75 4.35c1.34 1.33 2.87 1.24 2.87 1.24h.69s.2-.02.31-.13.1-.29.1-.29-.02-.88.41-1.01.97.85 1.55 1.23c.44.29.77.23.77.23l1.54-.02s.8-.05.43-.66"/></g><defs><clipPath id="a"><path d="M0 0h26v26h-26z"/></clipPath></defs></symbol><use xlink:href="#sprite-vk" width="26" height="26" y="256"/><view id="sprite-vk-view" viewBox="0 256 26 26"/></svg>